<svg xmlns="http://www.w3.org/2000/svg" width="128" height="128" viewBox="0 0 128 128">
  <g id="Gruppe_9" data-name="Gruppe 9" transform="translate(197 -196)">
    <path id="Pfad_30" data-name="Pfad 30" d="M64,0A64,64,0,1,1,0,64,64,64,0,0,1,64,0Z" transform="translate(-197 196)" fill="#990080"/>
    <path id="Pfad_31" data-name="Pfad 31" d="M47.5-81.64A46.008,46.008,0,0,0,1.484-35.625,46.008,46.008,0,0,0,47.5,10.391,46.008,46.008,0,0,0,93.515-35.625,46.008,46.008,0,0,0,47.5-81.64Zm0,83.125A37.1,37.1,0,0,1,10.391-35.625,37.1,37.1,0,0,1,47.5-72.734,37.1,37.1,0,0,1,84.609-35.625,37.1,37.1,0,0,1,47.5,1.484ZM58.967-17.887a2.242,2.242,0,0,0,3.117-.482l3.488-4.806a2.225,2.225,0,0,0-.483-3.117L52.7-35.309V-61.6a2.233,2.233,0,0,0-2.227-2.227H44.531A2.233,2.233,0,0,0,42.3-61.6v30.467a2.241,2.241,0,0,0,.909,1.8Z" transform="translate(-180 296)" fill="#fff"/>
  </g>
</svg>
