<svg xmlns="http://www.w3.org/2000/svg" xmlns:xlink="http://www.w3.org/1999/xlink" width="16" height="16" viewBox="0 0 16 16">
  <defs>
    <clipPath id="clip-timefield-icon-mask">
      <rect width="16" height="16"/>
    </clipPath>
  </defs>
  <g id="timefield-icon-mask" clip-path="url(#clip-timefield-icon-mask)">
    <path d="M9.484-81.64a8,8,0,0,0-8,8,8,8,0,0,0,8,8,8,8,0,0,0,8-8A8,8,0,0,0,9.484-81.64Zm0,14.451a6.45,6.45,0,0,1-6.451-6.451,6.45,6.45,0,0,1,6.451-6.451,6.45,6.45,0,0,1,6.451,6.451A6.45,6.45,0,0,1,9.484-67.189Zm1.993-3.368a.39.39,0,0,0,.542-.084l.606-.835a.387.387,0,0,0-.084-.542l-2.155-1.568v-4.571A.388.388,0,0,0,10-78.544H8.968a.388.388,0,0,0-.387.387v5.3a.39.39,0,0,0,.158.313Z" transform="translate(-1.484 81.64)" fill="currentColor"/>
  </g>
</svg>
